<?xml version="1.0" encoding="UTF-8" standalone="no"?>
<svg width="423px" height="72px" viewBox="0 0 423 72" version="1.1" xmlns="http://www.w3.org/2000/svg" xmlns:xlink="http://www.w3.org/1999/xlink">
    <!-- Generator: Sketch 43.2 (39069) - http://www.bohemiancoding.com/sketch -->
    <title>matt taylor</title>
    <desc>Created with Sketch.</desc>
    <defs>
        <linearGradient x1="0%" y1="50%" x2="100%" y2="50%" id="linearGradient-1">
            <stop stop-color="#1B6AFF" offset="0%"></stop>
            <stop stop-color="#1BB5FF" offset="100%"></stop>
        </linearGradient>
    </defs>
    <g id="Page-1" stroke="none" stroke-width="1" fill="none" fill-rule="evenodd">
        <path d="M62.432,46.504 L64.448,25.12 L55.52,16.48 L36.8,20.728 L32.696,16.48 L16.496,20.08 L12.896,16.48 L0.8,18.784 L2.816,50.824 L8.864,55 L19.448,55 L20.672,28.432 L24.776,28.36 L26.864,55 L39.176,55 L40.328,28.432 L44.216,28.36 L46.088,50.464 L50.552,55 L66.536,55 L66.536,47.296 L62.432,46.504 Z M108.481143,46.504 L112.585143,47.296 L112.585143,55 L96.6731428,55 L93.2891428,51.256 L79.4651428,56.44 L69.3851428,51.76 L67.8731428,38.008 L71.9051428,31.528 L90.6251428,29.944 L90.4091428,27.136 L70.7531428,25.264 L70.7531428,17.56 L103.081143,17.56 L110.497143,25.12 L108.481143,46.504 Z M91.9931428,45.784 L91.1291428,36.064 L86.6651428,37.432 L86.1611428,45.928 L91.9931428,45.784 Z M141.138286,26.56 L141.138286,18.856 L135.666286,17.056 L136.170286,7.696 L129.042286,4.6 L114.714286,18.64 L116.658286,50.824 L122.706286,55 L140.418286,55 L140.418286,45.064 L134.226286,43.84 L135.162286,26.56 L141.138286,26.56 Z M170.555428,26.56 L170.555428,18.856 L165.083428,17.056 L165.587428,7.696 L158.459428,4.6 L144.131428,18.64 L146.075428,50.824 L152.123428,55 L169.835428,55 L169.835428,45.064 L163.643428,43.84 L164.579428,26.56 L170.555428,26.56 Z M218.085714,26.56 L218.085714,18.856 L212.613714,17.056 L213.117714,7.696 L205.989714,4.6 L191.661714,18.64 L193.605714,50.824 L199.653714,55 L217.365714,55 L217.365714,45.064 L211.173714,43.84 L212.109714,26.56 L218.085714,26.56 Z M261.254857,46.504 L265.358857,47.296 L265.358857,55 L249.446857,55 L246.062857,51.256 L232.238857,56.44 L222.158857,51.76 L220.646857,38.008 L224.678857,31.528 L243.398857,29.944 L243.182857,27.136 L223.526857,25.264 L223.526857,17.56 L255.854857,17.56 L263.270857,25.12 L261.254857,46.504 Z M244.766857,45.784 L243.902857,36.064 L239.438857,37.432 L238.934857,45.928 L244.766857,45.784 Z M303.344,16.48 L291.536,19.216 L293.192,46.072 L286.424,46.072 L287.432,24.4 L279.584,16.48 L267.488,18.784 L269.36,49.456 L279.512,56.44 L293.696,54.136 L293.984,58.744 L280.16,63.424 L280.16,71.776 L303.92,71.776 L308.168,66.592 L311.912,24.832 L303.344,16.48 Z M334.993142,46.504 L336.937142,3.664 L329.449142,0.28 L315.121142,4.6 L317.857142,50.752 L324.193142,55 L338.881142,55 L338.881142,47.296 L334.993142,46.504 Z M375.714285,17.56 L384.642285,24.976 L382.914285,52.192 L362.610285,56.44 L342.306285,52.192 L340.650285,24.976 L349.506285,17.56 L375.714285,17.56 Z M359.082285,47.728 L366.138285,47.728 L364.842285,25.984 L360.450285,25.192 L359.082285,47.728 Z M409.739428,31.024 L414.419428,37 L422.339428,32.464 L422.411428,19 L409.883428,16.552 L405.923428,22.96 L400.955428,16.48 L388.715428,18.784 L390.731428,50.896 L396.779428,55 L414.491428,55 L414.491428,47.296 L407.795428,45.496 L408.515428,31.816 L409.739428,31.024 Z" id="matt-taylor" fill="url(#linearGradient-1)"></path>
    </g>
</svg>